<svg width="37" height="31" viewBox="0 0 37 31" xmlns="http://www.w3.org/2000/svg"><title>icon-topbar-xp</title><g fill="none" fill-rule="evenodd"><path fill="#4C4B4B" d="M2.814 11.802L1.45 10.066l-.05.778 1.363 1.736z"/><path fill="#222" d="M21.364 2.175L19.994.55 1.451 10.066l1.363 1.736z"/><path fill="#4F4F4F" d="M21.364 2.175l-.05.778-18.55 9.627.05-.778z"/><path fill="#878787" d="M4.58 10.825l-1.36-1.73.096-.07 1.36 1.73zm1.676-.847l-1.361-1.73.096-.07 1.361 1.73zm1.675-.848L6.571 7.4l.096-.07 1.36 1.73zm1.676-.848L8.246 6.553l.096-.07 1.361 1.729zm1.834-.924l-1.373-1.721.097-.071 1.372 1.72zm1.669-.859l-1.372-1.72.096-.072 1.372 1.72zm1.67-.859l-1.373-1.72.096-.072 1.373 1.721zm1.67-.858l-1.373-1.72.096-.072 1.372 1.72zm1.568-.852l-1.373-1.72.096-.071 1.373 1.72zm1.669-.858l-1.372-1.72.096-.072 1.372 1.721z"/><path fill="#4C4B4B" d="M34.822 18.606l1.952-1.032-.272.731-1.95 1.032z"/><path fill="#222" d="M21.792 2.266l1.912-.928 13.07 16.236-1.952 1.032z"/><path fill="#4F4F4F" d="M21.792 2.266l-.271.73 13.03 16.341.271-.731z"/><path fill="#878787" d="M33.606 16.995l-.06-.104 1.947-1.026.06.103zM32.42 15.54l-.06-.105 1.947-1.026.06.104zm-1.186-1.457l-.06-.103 1.947-1.027.06.104zm-1.186-1.456l-.059-.103 1.946-1.027.06.104zm-1.299-1.591l-.059-.104 1.954-1.013.058.104zm-1.176-1.463l-.059-.104 1.954-1.014.058.104zM26.397 8.11l-.059-.104 1.954-1.014.059.104zm-1.176-1.464l-.059-.104 1.954-1.013.059.104zM24.134 5.23l-.058-.103 1.953-1.014.06.104zm-1.176-1.462l-.058-.105 1.954-1.013.058.104z"/><path fill="#B55C00" d="M18.984 14.04l-3.431 16.145 19.303-9.98.568-2.67zM2.531 10.543l-.567 2.67 13.575 16.969 3.432-16.145z"/><path fill="#FC8A14" d="M16.12 27.515l19.304-9.98L21.849.566l-19.304 9.98z"/><path d="M16.473 25.857L4.736 11.012l16.76-8.788L33.233 17.07l-16.76 8.788z" stroke="#FDB951" stroke-width="2" fill="#FC8A14"/><path fill="#4C4B4B" d="M.856 13.925l12.397 15.616.033-.77L.889 13.156z"/><path fill="#222" d="M15.305 28.039L2.903 12.533l-2.014.623L13.286 28.77z"/><path fill="#4C4B4B" d="M13.286 28.771l-.033.77 2.019-.733.033-.77z"/><path fill="#878787" d="M1.76 15.125l.036-.808 1.99-.72.044.111-1.916.693-.032.731zm1.157 1.41l.035-.808 1.99-.72.044.11-1.916.693-.032.732zm1.151 1.519l.035-.808 1.99-.72.044.111-1.916.693-.031.731zm1.156 1.41l.035-.808 1.99-.72.044.11-1.916.693-.031.731zm1.156 1.409l.035-.808 1.99-.72.045.111-1.917.693-.031.731zm1.156 1.41l.035-.808 1.99-.72.045.11-1.916.693-.032.732zm1.152 1.519l.035-.808 1.99-.72.044.111-1.916.693-.032.731zm1.156 1.41l.035-.808 1.99-.72.044.11-1.916.693-.031.731zm1.268 1.638l.035-.808 1.99-.72.044.111-1.916.693-.032.731zm1.156 1.41l.035-.808 1.99-.72.044.11-1.916.693-.032.732z"/><path fill="#4C4B4B" d="M18.338 29.845l-.282.717 17.677-9.223.282-.717z"/><path fill="#222" d="M16.792 28.355l17.636-9.121 1.587 1.388-17.677 9.223z"/><path fill="#4C4B4B" d="M16.51 29.072l1.546 1.49.282-.717-1.546-1.49z"/><path fill="#878787" d="M34.418 22.067l-.114-.044.268-.68-1.468-1.413.085-.083 1.526 1.467zm-1.63.817l-.114-.043.269-.68-1.469-1.413.085-.083 1.526 1.467zm-1.67.92l-.113-.043.268-.681-1.468-1.412.085-.083 1.525 1.466zm-1.629.818l-.114-.044.269-.68-1.469-1.413.085-.083 1.526 1.467zm-1.629.817l-.114-.043.268-.681-1.468-1.412.085-.084 1.525 1.467zm-1.63.817l-.114-.043.269-.68-1.469-1.413.085-.083 1.526 1.467zm-1.67.92l-.114-.043.27-.681-1.47-1.412.086-.083 1.525 1.467zm-1.63.818l-.113-.044.269-.68-1.469-1.413.085-.083 1.526 1.467zm-1.824.981l-.114-.044.269-.68-1.469-1.412.085-.084 1.526 1.467zm-1.629.817l-.114-.043.269-.681-1.47-1.412.086-.083 1.526 1.467z"/><path d="M10.874 12.168l2.45 3.104 3.428-1.8-2.45-3.105-3.428 1.8zm.731.155l2.568-1.349 1.848 2.342-2.567 1.349-1.849-2.342z" fill="#FB535A"/><path d="M13.894 10.58l2.45 3.106 3.428-1.801-2.45-3.105-3.428 1.8zm.731.156l2.568-1.348 1.848 2.341-2.567 1.349-1.849-2.342z" fill="#FB535A"/><path d="M13.045 14.919l2.45 3.104 3.429-1.8-2.45-3.105-3.429 1.8zm.732.155l2.567-1.349 1.848 2.342-2.567 1.349-1.848-2.342z" fill="#FB535A"/><path d="M16.065 13.332l2.451 3.105 3.428-1.801-2.45-3.105-3.429 1.8zm.732.155l2.567-1.348 1.848 2.341-2.567 1.349-1.848-2.342z" fill="#FB535A"/><path d="M15.217 17.67l2.45 3.104 3.428-1.8-2.45-3.105-3.428 1.8zm.731.155l2.567-1.349 1.849 2.342-2.568 1.349-1.848-2.342z" fill="#FB535A"/><path d="M18.237 16.083l2.45 3.105 3.428-1.801-2.45-3.105-3.428 1.801zm.731.155l2.568-1.348 1.848 2.341-2.567 1.35-1.849-2.343zm-2.051-7.245l2.45 3.105 3.428-1.801-2.45-3.105-3.428 1.8zm.73.155L20.216 7.8l1.848 2.341-2.567 1.35-1.848-2.343z" fill="#FB535A"/><path d="M19.088 11.744l2.45 3.105 3.428-1.801-2.45-3.105-3.428 1.801zm.731.156l2.568-1.35 1.848 2.343-2.568 1.348L19.82 11.9z" fill="#FB535A"/><path d="M21.259 14.495l2.45 3.105 3.429-1.8-2.451-3.106-3.428 1.801zm.731.156l2.568-1.35 1.848 2.343-2.567 1.348-1.849-2.341z" fill="#FB535A"/><path fill="#FC8A14" d="M20.498 6.82l-10.226 5.429 7.134 9.119 10.226-5.43z"/><path d="M10.996 12.473l6.587 8.265 9.379-4.871L20.375 7.6l-9.38 4.872zm6.109 9.807L8.928 11.96l11.667-6.102 8.177 10.32-11.667 6.102z" fill="#FFF"/><path fill="#FFF" d="M15.835 13.496l2.567 3.063 3.591-1.754-2.567-3.063z"/></g></svg>