<svg width="22" height="18" viewBox="0 0 22 18" xmlns="http://www.w3.org/2000/svg"><title>icon-twitter</title><g fill="none" fill-rule="evenodd"><path fill-opacity="0" fill="#000" d="M-9-11h40v40H-9z"/><path d="M21.59 2.044a8.951 8.951 0 0 1-2.542.687A4.393 4.393 0 0 0 20.995.319c-.859.5-1.806.862-2.815 1.059A4.448 4.448 0 0 0 14.947 0c-2.446 0-4.429 1.953-4.429 4.361 0 .342.04.675.115.994A12.64 12.64 0 0 1 1.504.797 4.28 4.28 0 0 0 .905 2.99c0 1.513.783 2.849 1.97 3.63A4.481 4.481 0 0 1 .87 6.072v.055c0 2.113 1.527 3.876 3.552 4.277a4.551 4.551 0 0 1-1.167.153c-.286 0-.562-.028-.834-.081a4.424 4.424 0 0 0 4.137 3.03 8.974 8.974 0 0 1-5.5 1.864c-.358 0-.71-.021-1.057-.06a12.66 12.66 0 0 0 6.79 1.963c8.147 0 12.6-6.647 12.6-12.411l-.014-.565a8.773 8.773 0 0 0 2.215-2.253z" fill="#FFF" fill-rule="nonzero"/></g></svg>