<svg width="27" height="26" viewBox="0 0 27 26" xmlns="http://www.w3.org/2000/svg"><title>icon-topbar-battlepass</title><defs><linearGradient x1="11.824%" y1="5.903%" x2="86.176%" y2="70.439%" id="a"><stop stop-color="#B1A012" offset="0%"/><stop stop-color="#B9AC50" offset="50.52%"/><stop stop-color="#997F0E" offset="100%"/></linearGradient><linearGradient x1="0%" y1="50%" y2="50%" id="b"><stop stop-color="#FFED51" offset="0%"/><stop stop-color="#FFF4A4" offset="50.52%"/><stop stop-color="#FFDC40" offset="100%"/></linearGradient><linearGradient x1="20.831%" y1="-2.833%" x2="79.929%" y2="75.164%" id="c"><stop stop-color="#C9B720" offset="0%"/><stop stop-color="#D1C466" offset="50.52%"/><stop stop-color="#B1951A" offset="100%"/></linearGradient></defs><g fill="none" fill-rule="evenodd"><path d="M0 4.93c.62-.17 1.244-.273 1.804-.508 1.264-.527 2.112-1.478 2.766-2.579.346-.585.618-1.208.936-1.843h15.615c.436.794.805 1.579 1.281 2.3.722 1.092 1.691 1.956 3.051 2.343.424.121.876.163 1.338.248-.058.56-.096 1.148-.182 1.728-.278 1.86-.543 3.72-.873 5.573-.172.963-.462 1.909-.724 2.858-.328 1.18-1.065 2.15-1.913 3.054-2.092 2.24-4.502 4.16-6.977 6.017a84.343 84.343 0 0 1-2.057 1.495c-.113.08-.277.11-.424.133-.514.08-.916-.1-1.327-.4-2.425-1.769-4.807-3.58-6.987-5.608-.62-.578-1.199-1.197-1.794-1.799-1.174-1.187-1.767-2.628-2.143-4.174-.469-1.94-.805-3.9-1.054-5.874-.119-.947-.22-1.895-.328-2.842C0 4.992 0 4.931 0 4.931z" fill="url(#a)"/><path d="M1.416 5.549c1.99-.105 3.214-1.19 4.125-2.666.28-.454.49-.948.702-1.435.086-.197.176-.267.409-.267 3.106.009 6.212.007 9.318.007 1.441 0 2.882.007 4.325-.007.27-.003.404.056.498.309.403 1.091 1.006 2.075 1.905 2.885a4.395 4.395 0 0 0 2.705 1.158c.05.004.1.009.151.016.008 0 .015.012.05.04-.04.436-.06.897-.128 1.349-.295 1.965-.565 3.937-.929 5.893-.171.93-.464 1.855-.817 2.74-.447 1.114-1.333 1.973-2.196 2.823-2.187 2.162-4.648 4.043-7.156 5.873-.28.203-.55.307-.908.295-.288-.01-.518-.068-.747-.237C10.5 22.71 8.32 21.048 6.32 19.193c-.623-.578-1.204-1.2-1.797-1.806-1.054-1.082-1.604-2.391-1.882-3.8a155.236 155.236 0 0 1-.916-5.178c-.136-.846-.197-1.703-.29-2.555-.01-.092-.013-.186-.02-.305z" fill="url(#b)"/><path d="M23.76 6.701c-.187 1.382-.358 2.732-.553 4.08-.196 1.36-.474 2.704-.94 4.009-.367 1.02-1.109 1.813-1.873 2.58-1.96 1.97-4.176 3.674-6.473 5.29-.22.154-.78.16-.996.007-2.367-1.66-4.628-3.434-6.672-5.444-1.325-1.302-1.989-2.853-2.274-4.565-.323-1.935-.572-3.879-.853-5.818-.005-.038 0-.078 0-.14 1.305-.062 2.307-.645 3.026-1.603.414-.55.724-1.176 1.022-1.792.124-.253.23-.344.532-.342 3.83.012 7.661.01 11.492 0 .252 0 .35.08.444.286.222.482.444.974.742 1.42.76 1.135 1.786 1.936 3.376 2.032z" fill="url(#c)"/><path fill="#FFF" fill-rule="nonzero" d="M18.294 8L20 9.763 12.058 17 7 12.39l1.706-1.762 3.352 3.055z"/></g></svg>