<svg width="19" height="19" viewBox="0 0 19 19" xmlns="http://www.w3.org/2000/svg"><title>icon-facebook</title><g fill="none" fill-rule="evenodd"><path fill-opacity="0" fill="#000" d="M-11-11h40v40h-40z"/><path d="M17.17 0H1.004C.449 0 0 .47 0 1.049V17.95C0 18.531.449 19 1.003 19h8.704v-7.358H7.34V8.775h2.368V6.66c0-2.454 1.434-3.79 3.528-3.79 1.003 0 1.865.078 2.116.113v2.564l-1.452.001c-1.139 0-1.36.566-1.36 1.396v1.83h2.717l-.354 2.868H12.54V19h4.63c.555 0 1.004-.47 1.004-1.049V1.05c0-.58-.45-1.049-1.003-1.049" fill="#FEFEFE"/></g></svg>