<svg width="24" height="18" viewBox="0 0 24 18" xmlns="http://www.w3.org/2000/svg"><title>icon-discord</title><g fill="none" fill-rule="evenodd"><path fill-opacity="0" fill="#000" d="M-8-11h40v40H-8z"/><path d="M15.658 12.226c-1.151 0-2.096-1.027-2.096-2.28 0-1.254.924-2.281 2.096-2.281 1.17 0 2.095 1.027 2.095 2.28 0 1.254-.924 2.281-2.095 2.281m-7.5 0c-1.151 0-2.096-1.027-2.096-2.28 0-1.254.924-2.281 2.096-2.281 1.17 0 2.116 1.027 2.095 2.28 0 1.254-.924 2.281-2.095 2.281M21.04 2.158C18.082-.062 15.267 0 15.267 0l-.288.33c3.494 1.067 5.117 2.609 5.117 2.609A16.754 16.754 0 0 0 13.91.966a17.397 17.397 0 0 0-4.15.041c-.124 0-.227.02-.35.041-.72.062-2.466.329-4.664 1.295-.76.35-1.213.596-1.213.596S5.24 1.315 8.938.247L8.733 0S5.918-.06 2.959 2.158c0 0-2.959 5.363-2.959 11.98 0 0 1.726 2.979 6.267 3.122 0 0 .76-.924 1.377-1.705-2.61-.78-3.596-2.425-3.596-2.425s.205.144.575.35c.02.02.041.04.082.061.062.042.124.062.185.103a12.07 12.07 0 0 0 1.5.699c.843.328 1.85.657 3.021.883 1.541.288 3.35.39 5.322.02a13.524 13.524 0 0 0 2.98-.883c.719-.267 1.52-.657 2.362-1.212 0 0-1.027 1.685-3.719 2.445.617.78 1.356 1.664 1.356 1.664C22.253 17.117 24 14.137 24 14.137c0-6.616-2.959-11.98-2.959-11.98" fill="#FFF"/></g></svg>