<svg width="35" height="26" viewBox="0 0 35 26" xmlns="http://www.w3.org/2000/svg"><title>icon-topbar-shop</title><defs><filter x="-13.3%" y="-53.4%" width="126.5%" height="213.7%" filterUnits="objectBoundingBox" id="a"><feOffset dx="1" dy="2" in="SourceAlpha" result="shadowOffsetOuter1"/><feColorMatrix values="0 0 0 0 0 0 0 0 0 0 0 0 0 0 0 0 0 0 0.2 0" in="shadowOffsetOuter1" result="shadowMatrixOuter1"/><feMerge><feMergeNode in="shadowMatrixOuter1"/><feMergeNode in="SourceGraphic"/></feMerge></filter></defs><g fill="none" fill-rule="evenodd"><path fill="#DADADA" d="M29.165 26L35 25.732V2.67L29 0z"/><path fill="#FFF" d="M5 26h25V0H5z"/><path fill="#FFF" d="M4.643 12.48h25.071V0H4.643z"/><path d="M19.263 22h-3.526c-.407 0-.737-.62-.737-1.387v-3.225c0-.766.33-1.388.737-1.388h3.526c.407 0 .737.622.737 1.388v3.225c0 .766-.33 1.387-.737 1.387m6.292 0h-3.767c-.435 0-.788-.62-.788-1.387v-3.225c0-.766.353-1.388.788-1.388h3.767c.435 0 .788.622.788 1.388v3.225c0 .766-.353 1.387-.788 1.387M12 26H7v-8.412C7 16.711 7.638 16 8.424 16h2.152c.786 0 1.424.711 1.424 1.588V26z" fill="#232323"/><path fill="#AD2D2D" d="M4.605 3.946h24.873V.05H4.605z"/><path fill="#AD2D2D" d="M29 6.135L35 7V2.54L29 0z"/><g filter="url(#a)" transform="translate(0 2.08)"><path fill="#C93232" d="M6.643 5.436H1.105L5.01.274h5.538z"/><path stroke="#C93232" d="M6.643 5.436H1.105L5.01.274h5.538z"/><path fill="#FFF" d="M11.693 5.436H6.156L10.06.274h5.538z"/><path stroke="#FFF" d="M11.693 5.436H6.156L10.06.274h5.538z"/><path fill="#C93232" d="M16.54 5.436h-5.537L14.908.274h5.537z"/><path stroke="#C93232" d="M16.54 5.436h-5.537L14.908.274h5.537z"/><path d="M5.126 5.958c0 1.61-1.034 2.915-2.31 2.915S.506 7.568.506 5.958" fill="#AD2D2D"/><path d="M5.126 5.958c0 1.61-1.034 2.915-2.31 2.915S.506 7.568.506 5.958" stroke="#AD2D2D"/><path d="M9.71 5.958c0 1.61-.922 2.915-2.058 2.915-1.136 0-2.058-1.305-2.058-2.915" fill="#FFF"/><path d="M9.71 5.958c0 1.61-.922 2.915-2.058 2.915-1.136 0-2.058-1.305-2.058-2.915" stroke="#FFF"/><path fill="#FFF" d="M21.961 5.436h-5.537L20.328.274h5.538z"/><path stroke="#FFF" d="M21.961 5.436h-5.537L20.328.274h5.538z"/><path d="M20.093 5.958c0 1.61-.92 2.915-2.057 2.915-1.136 0-2.058-1.305-2.058-2.915" fill="#FFF"/><path d="M20.093 5.958c0 1.61-.92 2.915-2.057 2.915-1.136 0-2.058-1.305-2.058-2.915" stroke="#FFF"/><path d="M14.773 5.958c0 1.61-.928 2.915-2.075 2.915-1.146 0-2.076-1.305-2.076-2.915" fill="#AD2D2D"/><path d="M14.773 5.958c0 1.61-.928 2.915-2.075 2.915-1.146 0-2.076-1.305-2.076-2.915" stroke="#AD2D2D"/><path fill="#C93232" d="M25.507 5.436H21.66L25.567.274h3.845z"/><path stroke="#C93232" fill="#C93232" d="M25.826 5.436H21.66L25.567.274h3.845v2.952z"/><path d="M25.403 5.958c0 1.61-.93 2.915-2.076 2.915S21.25 7.568 21.25 5.958" fill="#AD2D2D"/><path d="M25.403 5.958c0 1.61-.93 2.915-2.076 2.915S21.25 7.568 21.25 5.958" stroke="#AD2D2D"/></g></g></svg>