<svg width="45" height="38" viewBox="0 0 45 38" xmlns="http://www.w3.org/2000/svg" xmlns:xlink="http://www.w3.org/1999/xlink"><title>icon-skins</title><defs><path id="a" d="M.166.168h28.792v28.79H.166z"/><linearGradient x1="16.874%" y1="50%" x2="63.56%" y2="76.243%" id="b"><stop stop-color="#E7A36B" offset="0%"/><stop stop-color="#B65E32" offset="100%"/></linearGradient></defs><g fill="none" fill-rule="evenodd"><g transform="translate(17 -2)"><mask id="c" fill="#fff"><use xlink:href="#a"/></mask><path d="M5.906 28.959c-1.283-2.631-3.04-4.525-5.74-5.775 1.565-2.677 3.184-4.12 4.61-5.512 6.745-6.585 11.798-9.634 19.405-15.19.941-.687 1.65-.664 2.37.041.766.753.795 1.454.071 2.443-5.715 7.82-8.906 13.51-15.716 20.409-1.204 1.219-3.624 2.317-5 3.584" fill="url(#b)" mask="url(#c)"/></g><path d="M20.363 28c-.978-2.046-2.274-3.573-4.363-4.412L16.664 22c2.608.984 4.167 2.85 5.336 5.297L20.363 28" fill="#ADADAD"/><path d="M0 37.982c2.617-1.297 3.782-3.49 4.656-5.975.59-1.678 1.23-3.408 2.237-4.868 1.69-2.452 4.273-3.565 7.329-2.99 3.072.577 4.881 2.622 5.595 5.46.662 2.632-.529 4.713-2.597 6.368-1.543 1.236-3.376 1.944-5.375 1.982-3.946.076-7.896.023-11.845.023" fill="#252525"/></g></svg>