<svg id="Layer_1" xmlns="http://www.w3.org/2000/svg" viewBox="0 0 33.88 33.99"><style>.st0{fill:url(#SVGID_1_)}.st1{fill:url(#SVGID_2_)}.st2{fill:url(#SVGID_3_)}.st3{fill:url(#SVGID_4_)}.st4{fill:url(#SVGID_5_)}.st5{fill:url(#SVGID_6_)}.st6{fill:url(#SVGID_7_)}.st7{fill:url(#SVGID_8_)}</style><linearGradient id="SVGID_1_" gradientUnits="userSpaceOnUse" x1="8.311" y1="30.717" x2="29.371" y2="30.717"><stop offset="0" stop-color="#ffed51"/><stop offset=".505" stop-color="#fff4a4"/><stop offset="1" stop-color="#ffdc40"/></linearGradient><path class="st0" d="M29.37 30.75l-.27-3.31-20.79 2.02s.31 3.88.32 3.95c.06.68 4.68.78 10.33.23 5.59-.55 10.08-1.54 10.12-2.22.19-.15.31-.4.29-.67z"/><linearGradient id="SVGID_2_" gradientUnits="userSpaceOnUse" x1="-640.025" y1="-3572.07" x2="-616.209" y2="-3572.07" gradientTransform="matrix(.8739 -.0793 .0328 .3614 684.672 1269.724)"><stop offset="0" stop-color="#a2931a"/><stop offset=".505" stop-color="#aa9f53"/><stop offset="1" stop-color="#8a7414"/></linearGradient><path class="st1" d="M8.29 29.49c.06.68 4.76.78 10.5.21 5.74-.56 10.35-1.57 10.3-2.26-.06-.68-4.76-.78-10.5-.21-5.74.57-10.35 1.58-10.3 2.26z"/><linearGradient id="SVGID_3_" gradientUnits="userSpaceOnUse" x1="-353.431" y1="-484.52" x2="-338.6" y2="-484.52" gradientTransform="matrix(.9144 -.082 .0893 .996 377.913 477.417)"><stop offset="0" stop-color="#c9b720"/><stop offset=".505" stop-color="#d1c466"/><stop offset="1" stop-color="#b1951a"/></linearGradient><path class="st2" d="M25.47 27.64c-2.7-.15-5.19-4.55-5.7-10.19l-.02-.03-3.86.38c.44 5.68-1.3 10.52-3.95 11.17l-.01.03s2.02.3 6.91-.22 6.64-1.1 6.64-1.1l-.01-.04z"/><linearGradient id="SVGID_4_" gradientUnits="userSpaceOnUse" x1="137.189" y1="-493.891" x2="150.286" y2="-493.891" gradientTransform="rotate(-5.126 5760.27 1289.256)"><stop offset="0" stop-color="#c9b720"/><stop offset=".505" stop-color="#d1c466"/><stop offset="1" stop-color="#b1951a"/></linearGradient><path class="st3" d="M12.25 20.67C6.06 21.23.56 16.61.01 10.37a1.29 1.29 0 0 1 1.17-1.4l10.47-.94c.71-.06 1.34.46 1.4 1.17l.9 10.01c.06.68-.42 1.3-1.1 1.39-.21.03-.41.06-.6.07zm-9.46-9.25c.94 3.91 4.44 6.73 8.47 6.72l-.66-7.42-7.81.7z"/><linearGradient id="SVGID_5_" gradientUnits="userSpaceOnUse" x1="158.055" y1="-493.891" x2="171.153" y2="-493.891" gradientTransform="rotate(-5.126 5760.27 1289.256)"><stop offset="0" stop-color="#c9b720"/><stop offset=".505" stop-color="#d1c466"/><stop offset="1" stop-color="#b1951a"/></linearGradient><path class="st4" d="M23.02 19.69c-.69.02-1.27-.49-1.33-1.18l-.9-10.01a1.29 1.29 0 0 1 1.17-1.4l10.47-.94c.71-.06 1.34.46 1.4 1.17.56 6.24-4.02 11.76-10.21 12.32-.2.02-.4.04-.6.04zm.46-10.13l.66 7.42c3.96-.71 6.91-4.1 7.14-8.12l-7.8.7z"/><linearGradient id="SVGID_6_" gradientUnits="userSpaceOnUse" x1="143.015" y1="-493.529" x2="165.326" y2="-493.529" gradientTransform="rotate(-5.126 5760.27 1289.256)"><stop offset="0" stop-color="#ffed51"/><stop offset=".505" stop-color="#fff4a4"/><stop offset="1" stop-color="#ffdc40"/></linearGradient><path class="st5" d="M5.69 8.56c.66 7.36 6.17 12.88 12.31 12.33s10.58-6.96 9.92-14.32L5.69 8.56z"/><linearGradient id="SVGID_7_" gradientUnits="userSpaceOnUse" x1="3.893" y1="4.542" x2="29.258" y2="4.542"><stop offset="0" stop-color="#c9b720"/><stop offset=".505" stop-color="#d1c466"/><stop offset="1" stop-color="#b1951a"/></linearGradient><path class="st6" d="M28.73 1.16c-.01-.12-.04-.44-.04-.5-.07-.76-5.67-.87-12.52-.25C9.32 1.02 3.82 2.14 3.89 2.9c0 .05.52 5.55.53 5.6.06.71 5.68.78 12.54.16 6.86-.62 12.37-1.7 12.3-2.41-.01-.06-.53-5.09-.53-5.09z"/><linearGradient id="SVGID_8_" gradientUnits="userSpaceOnUse" x1="144.042" y1="-3645.109" x2="165.406" y2="-3645.109" gradientTransform="matrix(.9959 -.0903 .0328 .3614 -18.33 1333.487)"><stop offset="0" stop-color="#837715"/><stop offset=".505" stop-color="#8b8244"/><stop offset="1" stop-color="#6b5a10"/></linearGradient><path class="st7" d="M5.63 3.03c.05.56 4.86.59 10.73.06s10.6-1.42 10.55-1.99c-.05-.56-4.86-.59-10.73-.06S5.58 2.47 5.63 3.03z"/></svg>