<svg width="19" height="15" viewBox="0 0 19 15" xmlns="http://www.w3.org/2000/svg"><title>icon-youtube</title><g fill="none" fill-rule="evenodd"><path fill-opacity="0" fill="#000" d="M-11-13h40v40h-40z"/><path d="M7.773 10.364V4.318l5.182 3.023-5.182 3.023zm10.83-8.071c-.219-.903-.862-1.614-1.68-1.855C15.441 0 9.5 0 9.5 0S3.559 0 2.077.438C1.259.68.616 1.39.397 2.293 0 3.928 0 7.34 0 7.34s0 3.413.397 5.048c.219.903.862 1.613 1.68 1.855 1.482.438 7.423.438 7.423.438s5.941 0 7.423-.438c.818-.242 1.461-.952 1.68-1.855C19 10.754 19 7.341 19 7.341s0-3.413-.397-5.048z" fill="#FFF"/></g></svg>